<?xml version="1.0" encoding="UTF-8" standalone="no"?>
<!DOCTYPE svg PUBLIC "-//W3C//DTD SVG 1.1//EN" "http://www.w3.org/Graphics/SVG/1.1/DTD/svg11.dtd">
<svg width="100%" height="100%" viewBox="0 0 1783 2009" version="1.1" xmlns="http://www.w3.org/2000/svg" xmlns:xlink="http://www.w3.org/1999/xlink" xml:space="preserve" xmlns:serif="http://www.serif.com/" style="fill-rule:evenodd;clip-rule:evenodd;stroke-linejoin:round;stroke-miterlimit:2;">
    <g transform="matrix(1,0,0,1,-40.7958,-32.1171)">
        <g transform="matrix(4.16667,0,0,4.16667,-932.271,-540.886)">
            <path d="M441.129,315.692C441.129,290.965 461.171,270.923 485.898,270.923C510.626,270.923 530.668,290.965 530.668,315.692C530.668,340.42 510.626,360.462 485.898,360.462C461.171,360.462 441.129,340.42 441.129,315.692ZM361.686,308.975L288.7,329.277C287.826,329.513 287.055,330.025 286.472,330.718L234.56,393.143C233.89,393.954 233.536,394.954 233.536,395.978C233.536,396.419 233.599,396.844 233.733,397.277C234.174,398.711 235.3,399.821 236.733,400.238L310.428,421.682C309.798,437.306 313.373,451.095 321.169,462.443L297.828,490.856C296.355,492.659 296.505,495.282 298.198,496.896L320.397,517.993C321.256,518.812 322.413,519.245 323.61,519.206C324.799,519.167 325.926,518.647 326.729,517.765L352.527,489.635C359.079,492.037 375.404,496.345 400.242,491.777L426.639,564.07C427.151,565.479 428.34,566.527 429.797,566.865C431.254,567.212 432.781,566.787 433.868,565.755L492.679,509.78C493.364,509.126 493.821,508.283 493.994,507.346L507.177,433.613C523.218,419.737 539.448,403.593 555.45,385.614C647.572,282.09 661.322,201.166 661.322,162.146C661.322,149.301 659.763,142.222 659.7,141.923C659.306,140.166 657.888,138.828 656.116,138.521C651.533,137.733 542.323,120.896 400.202,263.016C400.021,263.205 381.555,282.255 361.686,308.975Z" style="fill:rgb(237,27,48);fill-rule:nonzero;"/>
        </g>
        <g transform="matrix(0.806945,0,0,0.973943,-453.169,214.075)">
            <text x="594.304px" y="1871.7px" style="font-family:'IBMPlexMono-Medium', 'IBM Plex Mono', monospace;font-weight:500;font-size:266.667px;">Best Education</text>
        </g>
    </g>
</svg>
