<?xml version="1.0" encoding="UTF-8" standalone="no"?>
<!DOCTYPE svg PUBLIC "-//W3C//DTD SVG 1.1//EN" "http://www.w3.org/Graphics/SVG/1.1/DTD/svg11.dtd">
<svg width="100%" height="100%" viewBox="0 0 1783 1790" version="1.1" xmlns="http://www.w3.org/2000/svg" xmlns:xlink="http://www.w3.org/1999/xlink" xml:space="preserve" xmlns:serif="http://www.serif.com/" style="fill-rule:evenodd;clip-rule:evenodd;stroke-linejoin:round;stroke-miterlimit:2;">
    <g transform="matrix(1,0,0,1,-40.7958,-32.1171)">
        <g transform="matrix(0.959584,0,0,0.982061,-819.639,-498.27)">
            <g transform="matrix(4.34216,0,0,4.24278,-117.376,-43.3937)">
                <path d="M441.129,315.692C441.129,290.965 461.171,270.923 485.898,270.923C510.626,270.923 530.668,290.965 530.668,315.692C530.668,340.42 510.626,360.462 485.898,360.462C461.171,360.462 441.129,340.42 441.129,315.692ZM361.686,308.975L288.7,329.277C287.826,329.513 287.055,330.025 286.472,330.718L234.56,393.143C233.89,393.954 233.536,394.954 233.536,395.978C233.536,396.419 233.599,396.844 233.733,397.277C234.174,398.711 235.3,399.821 236.733,400.238L310.428,421.682C309.798,437.306 313.373,451.095 321.169,462.443L297.828,490.856C296.355,492.659 296.505,495.282 298.198,496.896L320.397,517.993C321.256,518.812 322.413,519.245 323.61,519.206C324.799,519.167 325.926,518.647 326.729,517.765L352.527,489.635C359.079,492.037 375.404,496.345 400.242,491.777L426.639,564.07C427.151,565.479 428.34,566.527 429.797,566.865C431.254,567.212 432.781,566.787 433.868,565.755L492.679,509.78C493.364,509.126 493.821,508.283 493.994,507.346L507.177,433.613C523.218,419.737 539.448,403.593 555.45,385.614C647.572,282.09 661.322,201.166 661.322,162.146C661.322,149.301 659.763,142.222 659.7,141.923C659.306,140.166 657.888,138.828 656.116,138.521C651.533,137.733 542.323,120.896 400.202,263.016C400.021,263.205 381.555,282.255 361.686,308.975Z" style="fill:rgb(237,27,48);fill-rule:nonzero;"/>
                <g transform="matrix(0.193812,-0.141551,0.141551,0.193812,-33.224,350.988)">
                    <g transform="matrix(0.910115,-0.414356,0.414356,0.910115,-252.995,716.498)">
                        <text x="1524.97px" y="941.382px" style="font-family:'IBMPlexMono-Medium', 'IBM Plex Mono', monospace;font-weight:500;font-size:125px;fill:white;">B</text>
                    </g>
                    <g transform="matrix(0.971773,-0.235918,0.235918,0.971773,-170.05,401.718)">
                        <text x="1593.73px" y="911.487px" style="font-family:'IBMPlexMono-Medium', 'IBM Plex Mono', monospace;font-weight:500;font-size:125px;fill:white;">e</text>
                    </g>
                    <g transform="matrix(0.986735,-0.162337,0.162337,0.986735,-123.034,282.441)">
                        <text x="1666.78px" y="894.086px" style="font-family:'IBMPlexMono-Medium', 'IBM Plex Mono', monospace;font-weight:500;font-size:125px;fill:white;">s</text>
                    </g>
                    <g transform="matrix(0.993105,-0.117227,0.117227,0.993105,-91.4019,210.146)">
                        <text x="1740.76px" y="882.084px" style="font-family:'IBMPlexMono-Medium', 'IBM Plex Mono', monospace;font-weight:500;font-size:125px;fill:white;">t</text>
                    </g>
                    <g transform="matrix(0.998519,-0.0544035,0.0544035,0.998519,-44.3804,104.111)">
                        <text x="1890.07px" y="867.215px" style="font-family:'IBMPlexMono-Medium', 'IBM Plex Mono', monospace;font-weight:500;font-size:125px;fill:white;">E</text>
                    </g>
                    <g transform="matrix(0.999531,-0.0306102,0.0306102,0.999531,-25.5007,60.5535)">
                        <text x="1965px" y="863.161px" style="font-family:'IBMPlexMono-Medium', 'IBM Plex Mono', monospace;font-weight:500;font-size:125px;fill:white;">d</text>
                    </g>
                    <g transform="matrix(0.999972,-0.00745192,0.00745192,0.999972,-6.3587,15.2253)">
                        <text x="2039.93px" y="860.898px" style="font-family:'IBMPlexMono-Medium', 'IBM Plex Mono', monospace;font-weight:500;font-size:125px;fill:white;">u</text>
                    </g>
                    <g transform="matrix(0.999891,0.0147823,-0.0147823,0.999891,12.9489,-31.1699)">
                        <text x="2114.95px" y="860.339px" style="font-family:'IBMPlexMono-Medium', 'IBM Plex Mono', monospace;font-weight:500;font-size:125px;fill:white;">c</text>
                    </g>
                    <g transform="matrix(0.999265,0.0383274,-0.0383274,0.999265,34.6251,-83.3005)">
                        <text x="2189.91px" y="861.422px" style="font-family:'IBMPlexMono-Medium', 'IBM Plex Mono', monospace;font-weight:500;font-size:125px;fill:white;">a</text>
                    </g>
                    <g transform="matrix(0.998038,0.0626086,-0.0626086,0.998038,58.555,-140.1)">
                        <text x="2264.78px" y="864.287px" style="font-family:'IBMPlexMono-Medium', 'IBM Plex Mono', monospace;font-weight:500;font-size:125px;fill:white;">t</text>
                    </g>
                    <g transform="matrix(0.995559,0.0941427,-0.0941427,0.995559,92.1943,-216.407)">
                        <text x="2339.7px" y="868.927px" style="font-family:'IBMPlexMono-Medium', 'IBM Plex Mono', monospace;font-weight:500;font-size:125px;fill:white;">i</text>
                    </g>
                    <g transform="matrix(0.99158,0.129497,-0.129497,0.99158,133.753,-305.281)">
                        <text x="2414.38px" y="875.873px" style="font-family:'IBMPlexMono-Medium', 'IBM Plex Mono', monospace;font-weight:500;font-size:125px;fill:white;">o</text>
                    </g>
                    <g transform="matrix(0.983327,0.181848,-0.181848,0.983327,202.51,-437.815)">
                        <text x="2488.78px" y="885.433px" style="font-family:'IBMPlexMono-Medium', 'IBM Plex Mono', monospace;font-weight:500;font-size:125px;fill:white;">n</text>
                    </g>
                </g>
            </g>
        </g>
    </g>
</svg>
